<?xml version="1.0" standalone="no"?><svg xmlns="http://www.w3.org/2000/svg" viewBox="0 0 1440 320"><path fill="#2c2c2c" fill-opacity="1" d="M0,64L6.2,58.7C12.3,53,25,43,37,42.7C49.2,43,62,53,74,69.3C86.2,85,98,107,111,106.7C123.1,107,135,85,148,64C160,43,172,21,185,37.3C196.9,53,209,107,222,133.3C233.8,160,246,160,258,160C270.8,160,283,160,295,149.3C307.7,139,320,117,332,112C344.6,107,357,117,369,128C381.5,139,394,149,406,149.3C418.5,149,431,139,443,112C455.4,85,468,43,480,69.3C492.3,96,505,192,517,192C529.2,192,542,96,554,53.3C566.2,11,578,21,591,58.7C603.1,96,615,160,628,176C640,192,652,160,665,144C676.9,128,689,128,702,133.3C713.8,139,726,149,738,128C750.8,107,763,53,775,53.3C787.7,53,800,107,812,122.7C824.6,139,837,117,849,122.7C861.5,128,874,160,886,165.3C898.5,171,911,149,923,144C935.4,139,948,149,960,181.3C972.3,213,985,267,997,282.7C1009.2,299,1022,277,1034,272C1046.2,267,1058,277,1071,245.3C1083.1,213,1095,139,1108,122.7C1120,107,1132,149,1145,176C1156.9,203,1169,213,1182,181.3C1193.8,149,1206,75,1218,48C1230.8,21,1243,43,1255,48C1267.7,53,1280,43,1292,69.3C1304.6,96,1317,160,1329,181.3C1341.5,203,1354,181,1366,192C1378.5,203,1391,245,1403,229.3C1415.4,213,1428,139,1434,101.3L1440,64L1440,320L1433.8,320C1427.7,320,1415,320,1403,320C1390.8,320,1378,320,1366,320C1353.8,320,1342,320,1329,320C1316.9,320,1305,320,1292,320C1280,320,1268,320,1255,320C1243.1,320,1231,320,1218,320C1206.2,320,1194,320,1182,320C1169.2,320,1157,320,1145,320C1132.3,320,1120,320,1108,320C1095.4,320,1083,320,1071,320C1058.5,320,1046,320,1034,320C1021.5,320,1009,320,997,320C984.6,320,972,320,960,320C947.7,320,935,320,923,320C910.8,320,898,320,886,320C873.8,320,862,320,849,320C836.9,320,825,320,812,320C800,320,788,320,775,320C763.1,320,751,320,738,320C726.2,320,714,320,702,320C689.2,320,677,320,665,320C652.3,320,640,320,628,320C615.4,320,603,320,591,320C578.5,320,566,320,554,320C541.5,320,529,320,517,320C504.6,320,492,320,480,320C467.7,320,455,320,443,320C430.8,320,418,320,406,320C393.8,320,382,320,369,320C356.9,320,345,320,332,320C320,320,308,320,295,320C283.1,320,271,320,258,320C246.2,320,234,320,222,320C209.2,320,197,320,185,320C172.3,320,160,320,148,320C135.4,320,123,320,111,320C98.5,320,86,320,74,320C61.5,320,49,320,37,320C24.6,320,12,320,6,320L0,320Z"></path></svg>